<?xml version="1.0" encoding="UTF-8"?>
<svg width="256" height="256" viewBox="0 0 256 256" fill="none" xmlns="http://www.w3.org/2000/svg" role="img" aria-label="LifeLink Logo">
  <rect width="256" height="256" fill="white"/>
  <!-- Drop -->
  <path d="M128 28 C128 28, 72 96, 72 132 C72 168, 97 196, 128 196 C159 196, 184 168, 184 132 C184 96, 128 28, 128 28 Z" fill="#E53935"/>
  <!-- Heart -->
  <path d="M128 84 C118 74, 98 74, 90 90 C82 106, 92 126, 128 148 C164 126, 174 106, 166 90 C158 74, 138 74, 128 84 Z" fill="#1B5E20"/>
  <!-- Link/Circle -->
  <path d="M54 176 C54 153, 90 138, 128 138 C166 138, 202 153, 202 176 C202 186, 194 194, 184 194 C176 194, 170 189, 170 182 C170 177, 174 172, 181 170 C170 162, 151 156, 128 156 C105 156, 86 162, 75 170 C82 172, 86 177, 86 182 C86 189, 80 194, 72 194 C62 194, 54 186, 54 176 Z" fill="#1B5E20"/>
</svg>
